<svg width="512" height="512" viewBox="0 0 512 512" xmlns="http://www.w3.org/2000/svg">
  <rect width="512" height="512" rx="64" fill="#4285f4"/>
  <path d="M256 128c-70.69 0-128 57.31-128 128s57.31 128 128 128 128-57.31 128-128-57.31-128-128-128zm0 20c59.647 0 108 48.353 108 108s-48.353 108-108 108-108-48.353-108-108 48.353-108 108-108z" fill="white"/>
  <path d="M256 172c-46.392 0-84 37.608-84 84s37.608 84 84 84 84-37.608 84-84-37.608-84-84-84zm0 20c35.346 0 64 28.654 64 64s-28.654 64-64 64-64-28.654-64-64 28.654-64 64-64z" fill="white"/>
  <circle cx="256" cy="256" r="32" fill="white"/>
  <text x="256" y="420" text-anchor="middle" font-family="Arial, sans-serif" font-size="48" font-weight="bold" fill="white">SAFETY</text>
</svg>